<?xml version="1.0" standalone="no"?>
<!DOCTYPE svg PUBLIC "-//W3C//DTD SVG 20010904//EN"
 "http://www.w3.org/TR/2001/REC-SVG-20010904/DTD/svg10.dtd">
<svg version="1.0" xmlns="http://www.w3.org/2000/svg"
 width="1181.000000pt" height="222.000000pt" viewBox="0 0 1181.000000 222.000000"
 preserveAspectRatio="xMidYMid meet">
<g transform="translate(0.000000,222.000000) scale(0.100000,-0.100000)"
fill="#000000" stroke="none">
<path d="M0 1125 l0 -1095 189 0 190 0 3 473 c4 423 6 478 22 527 57 173 157
263 296 264 81 1 132 -17 181 -61 69 -62 69 -67 69 -670 l0 -533 195 0 195 0
0 573 c0 466 -3 585 -15 642 -41 194 -179 342 -362 390 -73 19 -232 19 -306 0
-82 -21 -172 -69 -228 -122 l-49 -46 0 377 0 376 -190 0 -190 0 0 -1095z"/>
<path d="M2040 2061 l-185 -47 -3 -202 -2 -202 -140 0 -140 0 0 -160 0 -160
139 0 140 0 3 -457 c4 -433 5 -461 25 -520 87 -260 304 -346 696 -276 l87 15
0 163 0 163 -152 -5 c-170 -5 -200 2 -242 60 -20 28 -21 42 -24 443 l-3 414
201 0 200 0 0 160 0 160 -200 0 -200 0 0 250 c0 138 -3 250 -7 249 -5 0 -91
-22 -193 -48z"/>
<path d="M6295 1635 c-127 -27 -259 -98 -328 -174 -87 -96 -121 -197 -115
-341 3 -85 8 -105 37 -164 59 -120 174 -208 313 -241 36 -8 157 -26 269 -40
225 -29 267 -43 303 -104 42 -72 15 -176 -58 -220 -91 -57 -298 -68 -404 -21
-69 30 -119 88 -139 163 l-16 57 -180 0 -180 0 7 -55 c26 -226 208 -412 465
-476 74 -19 105 -21 250 -17 152 4 174 7 261 36 117 39 209 98 273 177 55 69
84 139 98 240 32 232 -92 422 -321 493 -70 22 -125 32 -352 62 -94 12 -160 26
-186 39 -73 37 -98 107 -64 183 25 58 72 93 152 114 170 43 346 -37 366 -168
l7 -38 183 0 184 0 0 34 c0 96 -78 247 -168 327 -60 52 -186 113 -279 133 -88
19 -292 20 -378 1z"/>
<path d="M7900 1635 c-265 -54 -426 -218 -453 -462 l-5 -43 188 0 188 0 7 39
c10 61 56 125 107 150 130 62 306 46 377 -35 38 -43 51 -90 51 -185 l0 -76
-102 -7 c-354 -24 -456 -36 -534 -60 -178 -57 -299 -176 -340 -336 -22 -86
-15 -223 16 -303 49 -130 166 -239 307 -287 93 -31 299 -40 393 -16 121 30
222 91 291 173 l26 30 11 -44 c18 -64 84 -127 158 -149 70 -20 186 -15 252 12
l42 17 0 143 0 143 -50 -1 c-89 -2 -84 -27 -91 455 -5 343 -9 432 -22 476 -59
199 -197 323 -409 365 -94 19 -316 20 -408 1z m458 -987 c-6 -106 -34 -172
-99 -233 -112 -104 -307 -136 -418 -68 -102 63 -122 193 -43 276 34 36 89 65
139 73 43 6 327 31 387 33 l39 1 -5 -82z"/>
<path d="M9585 1634 c-249 -55 -412 -221 -440 -448 l-7 -56 191 0 191 0 0 28
c1 36 31 102 61 129 61 56 181 82 289 63 132 -23 180 -84 188 -237 5 -93 5
-93 -19 -93 -79 0 -477 -33 -544 -46 -148 -27 -292 -116 -359 -222 -91 -145
-90 -376 4 -522 65 -101 182 -181 315 -215 79 -20 272 -20 350 0 96 25 184 73
248 135 45 45 60 54 64 41 17 -54 30 -75 68 -110 78 -71 231 -92 343 -46 l42
17 0 143 0 143 -45 0 c-86 -2 -82 -23 -87 440 -5 373 -7 413 -26 484 -25 91
-41 125 -93 194 -49 67 -140 127 -242 160 -73 24 -100 27 -252 30 -127 3 -188
0 -240 -12z m472 -986 c-14 -180 -118 -294 -297 -328 -118 -22 -193 -6 -256
55 -67 64 -78 154 -28 231 20 30 82 70 130 84 34 9 310 35 418 39 l39 1 -6
-82z"/>
<path d="M11595 1629 c-99 -14 -189 -55 -254 -115 -32 -30 -64 -68 -71 -84 -7
-17 -14 -29 -16 -28 -2 2 -8 35 -13 73 -6 39 -13 85 -16 103 l-6 32 -164 0
-165 0 0 -790 0 -790 195 0 195 0 0 428 c0 467 5 519 57 613 78 144 235 218
407 193 l66 -10 0 187 0 186 -52 7 c-62 7 -83 6 -163 -5z"/>
<path d="M2936 1083 c74 -291 164 -646 201 -791 l66 -262 180 2 180 3 172 520
c98 295 175 514 179 505 3 -8 82 -242 174 -520 l169 -505 181 -3 c100 -1 182
0 182 3 0 3 86 356 190 785 105 429 190 782 190 785 0 3 -83 5 -184 5 l-184 0
-40 -167 c-22 -93 -75 -319 -118 -503 l-79 -334 -163 497 -163 497 -161 -2
-162 -3 -158 -490 c-87 -269 -159 -493 -161 -497 -1 -4 -53 205 -116 465 -63
260 -118 487 -123 505 l-9 32 -188 0 -189 0 134 -527z"/>
</g>
</svg>
